<svg version="1.1" id="Layer_1" xmlns="http://www.w3.org/2000/svg" xmlns:xlink="http://www.w3.org/1999/xlink" x="0px" y="0px"
	 width="100%" viewBox="0 0 1024 544" enable-background="new 0 0 1024 544" xml:space="preserve">
<path fill="#000000" opacity="1.000000" stroke="none" 
	d="
M505.709137,313.684814 
	C474.222046,349.009491 442.960815,384.061584 411.680084,419.096283 
	C411.388153,419.423279 410.836060,419.518066 410.163727,419.835358 
	C409.264862,417.550110 411.003387,416.323822 411.916901,415.024933 
	C426.481384,394.316681 441.120575,373.660980 455.719147,352.976654 
	C456.840302,351.388153 458.540894,349.772797 457.252777,347.605713 
	C456.125336,345.709015 454.003204,346.238220 452.229767,346.197662 
	C428.492767,345.654755 407.923401,337.700195 393.325348,318.478546 
	C364.457581,280.467621 380.060944,221.041824 432.983459,208.864441 
	C454.491272,203.915527 475.397156,205.772293 494.335205,218.429184 
	C498.759430,221.386017 502.782562,224.902573 506.442749,228.825684 
	C508.743439,231.291626 508.744354,233.279984 506.204224,235.572250 
	C500.639801,240.593704 495.116150,245.667313 489.746033,250.894409 
	C486.685730,253.873199 484.554657,253.601776 481.513367,250.521393 
	C468.593903,237.435760 451.345184,234.301987 435.772491,242.221161 
	C424.539001,247.933716 418.353271,257.385986 417.137268,269.939728 
	C416.186798,279.751617 417.190460,289.196381 422.605530,297.832520 
	C434.466278,316.748505 462.346680,319.696960 479.713776,303.433136 
	C483.819733,299.588074 486.854218,297.158905 491.349213,302.436523 
	C492.974701,304.345001 494.902771,303.748077 496.486633,301.953278 
	C501.777527,295.957611 507.115295,290.002991 512.369934,283.975830 
	C514.604248,281.413025 513.598938,278.222076 513.640381,275.304230 
	C513.983032,251.205292 523.920044,232.111801 544.019226,218.869736 
	C559.444519,208.707001 576.878357,205.651428 595.142639,206.855652 
	C596.470886,206.943237 597.784424,207.221008 599.205078,209.036072 
	C568.177551,243.757416 537.055725,278.584320 505.709137,313.684814 
z"/>
<path fill="#000000" opacity="1.000000" stroke="none" 
	d="
M808.092896,301.000000 
	C808.088745,313.658722 807.973694,325.818970 808.141968,337.975311 
	C808.199036,342.096954 806.717102,343.590851 802.585815,343.433746 
	C795.766602,343.174469 788.922729,343.159546 782.104919,343.432770 
	C778.359924,343.582825 775.928040,342.208008 773.632385,339.373962 
	C756.652466,318.412476 739.572998,297.531342 722.460205,276.677917 
	C720.398132,274.165009 718.610474,271.275208 715.672791,269.715302 
	C712.627625,271.242249 713.373718,273.834351 713.370300,276.026886 
	C713.339233,296.179993 713.401733,316.333191 713.395508,336.486389 
	C713.393311,343.623230 713.342590,343.530731 706.404236,343.427338 
	C698.411072,343.308228 690.410950,343.214874 682.422180,343.426208 
	C678.394714,343.532745 676.762268,342.252716 676.769836,338.037842 
	C676.844055,296.731567 676.821045,255.424927 676.685364,214.118835 
	C676.671570,209.929947 678.216125,208.532227 682.259949,208.652115 
	C689.249268,208.859329 696.259399,208.938766 703.240845,208.626129 
	C707.506714,208.435074 710.397400,209.890839 713.051025,213.175095 
	C728.749329,232.603577 744.597961,251.910706 760.407471,271.249268 
	C763.428711,274.945007 766.501221,278.598816 769.639038,282.379211 
	C772.429382,280.602631 771.639771,278.229523 771.645020,276.251923 
	C771.699280,255.765366 771.780945,235.277542 771.581238,214.792740 
	C771.537476,210.301682 772.796570,208.504761 777.486389,208.672073 
	C785.637207,208.962845 793.815735,208.978928 801.963928,208.648163 
	C806.895691,208.447952 808.221069,210.391846 808.194397,215.056122 
	C808.031921,243.536682 808.100952,272.018555 808.092896,301.000000 
z"/>
<path fill="#000000" opacity="1.000000" stroke="none" 
	d="
M267.293335,327.211700 
	C265.862122,330.634430 264.187134,333.599182 263.338379,336.784088 
	C261.858154,342.338379 258.510437,343.756042 253.035995,343.502075 
	C243.437744,343.056763 233.803955,343.377777 224.560364,343.377777 
	C222.916885,340.773834 224.362183,339.203094 225.057922,337.651550 
	C243.719833,296.034821 262.455780,254.451233 281.088257,212.821335 
	C282.448456,209.782318 284.325470,208.643936 287.605499,208.699112 
	C297.096863,208.858749 306.594574,208.869003 316.085571,208.700226 
	C319.426453,208.640808 321.178619,209.946381 322.519470,212.938049 
	C341.173279,254.557861 359.924957,296.133820 378.631500,337.729980 
	C379.293854,339.202759 380.339325,340.636230 379.755035,342.449066 
	C378.364105,343.773163 376.620850,343.343658 375.022064,343.351379 
	C365.861359,343.395660 356.693726,343.168610 347.542389,343.464111 
	C343.520325,343.593964 341.477692,342.023529 340.044464,338.497131 
	C337.600922,332.484924 334.760834,326.634583 332.274414,320.638702 
	C331.299530,318.287872 329.881897,317.364929 327.361603,317.374908 
	C310.039398,317.443512 292.716766,317.439484 275.394440,317.389771 
	C272.717865,317.382080 270.987946,318.350006 270.047363,320.916504 
	C269.304382,322.943756 268.306335,324.877533 267.293335,327.211700 
M309.414551,289.667145 
	C310.411926,289.656311 311.409332,289.646118 312.406708,289.634521 
	C319.476044,289.552338 319.703979,289.138153 316.906342,282.688385 
	C312.543732,272.630798 308.275818,262.532196 303.938904,252.463425 
	C303.257599,250.881622 302.865448,249.039169 300.552002,247.809525 
	C294.917664,261.562134 289.425812,274.967010 283.402527,289.669067 
	C292.657166,289.669067 300.549194,289.669067 309.414551,289.667145 
z"/>
<path fill="#000000" opacity="1.000000" stroke="none" 
	d="
M574.777161,345.531860 
	C560.278259,343.006104 547.581604,337.671356 536.812683,328.049988 
	C532.243408,323.967590 530.316528,324.026215 525.675659,328.349609 
	C508.372498,344.469208 491.164856,360.691284 473.894867,376.846558 
	C472.409088,378.236389 471.315765,380.300507 468.417908,379.908844 
	C540.814514,296.619354 613.929932,214.009094 688.654053,131.907593 
	C690.005676,134.824066 688.419617,135.877563 687.558105,137.029709 
	C669.304749,161.442719 651.944275,186.495529 634.271118,211.324173 
	C630.012939,217.306488 630.105164,217.999588 635.810242,222.693359 
	C668.127380,249.281845 670.192383,298.125549 639.602722,326.729279 
	C621.557434,343.602997 599.452759,348.777313 574.777161,345.531860 
M606.820618,308.407013 
	C626.565674,296.689911 628.849121,265.757172 614.485107,249.989639 
	C610.074707,245.148285 607.356506,244.965805 603.007080,249.715256 
	C589.170959,264.823853 575.444519,280.033020 561.596375,295.130615 
	C558.459412,298.550659 558.676208,301.307556 562.003845,304.511597 
	C572.942139,315.043549 590.744263,316.850128 606.820618,308.407013 
z"/>
<path fill="#000000" opacity="1.000000" stroke="none" 
	d="
M165.067871,264.895813 
	C175.012573,266.236450 184.665924,265.490753 194.303574,265.639740 
	C202.794754,265.771057 211.294510,265.798370 219.781250,265.552582 
	C223.369049,265.448700 224.462784,266.757263 224.354385,270.163727 
	C224.163788,276.153473 224.289902,282.153015 224.266556,288.148407 
	C224.240540,294.828278 224.067978,295.020203 217.132294,295.034393 
	C201.977203,295.065399 186.822021,295.070435 171.666885,295.063507 
	C164.087250,295.060028 164.096863,295.037628 164.091446,302.810181 
	C164.083435,314.301392 163.939896,325.794342 164.105255,337.282928 
	C164.167496,341.606262 163.049591,343.651093 158.206650,343.455017 
	C149.560608,343.105042 140.887924,343.227631 132.231506,343.403992 
	C128.473450,343.480560 126.812950,342.320465 126.821877,338.316803 
	C126.914253,296.848480 126.916710,255.379883 126.851799,213.911514 
	C126.845734,210.038513 128.300079,208.689819 132.174179,208.702347 
	C163.816452,208.804642 195.459473,208.812988 227.101578,208.682999 
	C231.381851,208.665421 232.576553,210.365677 232.412827,214.338898 
	C232.173050,220.158005 232.077805,226.010239 232.426788,231.817963 
	C232.713287,236.585831 231.084778,238.260986 226.242645,238.207443 
	C207.592453,238.001205 188.937042,238.258453 170.287231,238.035904 
	C165.548660,237.979370 163.583450,239.325027 164.041458,244.239243 
	C164.672104,251.006226 163.400742,257.858185 165.067871,264.895813 
z"/>
<path fill="#000000" opacity="1.000000" stroke="none" 
	d="
M844.796814,302.000000 
	C844.759399,266.509216 844.768860,231.518280 844.668213,196.527679 
	C844.597534,171.963806 849.442505,148.260803 856.934387,125.013245 
	C858.804504,119.210464 860.093262,113.152832 863.624451,107.712929 
	C865.953064,108.945641 866.295471,111.261833 867.016724,113.130653 
	C877.411743,140.063568 883.690369,167.754272 883.467041,196.848877 
	C883.151184,238.002563 883.365479,279.160187 883.273865,320.315979 
	C883.268738,322.621918 884.551270,325.992676 881.376160,326.883942 
	C877.443848,327.987732 873.253540,329.170441 869.105408,327.812561 
	C867.394165,327.252380 867.721191,325.342102 867.663391,323.880066 
	C866.985718,306.746033 866.352539,289.610229 865.645142,272.477448 
	C865.391479,266.335693 864.969238,260.200897 863.697388,253.984177 
	C863.250916,260.102997 862.610229,266.215027 862.395508,272.341980 
	C861.829773,288.485138 861.509521,304.636871 860.966431,320.780945 
	C860.734802,327.667236 860.035950,328.119873 853.249756,327.137543 
	C845.001587,325.943604 844.885620,325.815491 844.845154,317.495728 
	C844.820862,312.497162 844.812256,307.498566 844.796814,302.000000 
z"/>
<path fill="#000000" opacity="1.000000" stroke="none" 
	d="
M853.566650,332.457214 
	C871.584167,333.467712 888.829590,331.417694 905.781372,326.334869 
	C906.351074,335.723083 902.534119,340.897552 894.289307,342.558472 
	C890.051270,343.412262 885.824890,344.388855 881.546448,344.957153 
	C878.172119,345.405365 877.292969,347.156830 877.113953,350.308350 
	C876.320984,364.267426 875.330139,378.215698 874.345093,392.163208 
	C874.066528,396.106537 874.593445,399.574432 877.241760,402.878448 
	C880.966675,407.525482 880.669861,410.345490 876.853821,414.898804 
	C873.834839,418.501007 870.022339,421.235626 866.380005,424.147034 
	C864.903015,425.327759 863.388489,425.445862 861.831909,424.219604 
	C857.644165,420.920807 853.361816,417.732208 850.254272,413.283783 
	C848.366638,410.581665 847.494934,407.208984 849.596741,404.894073 
	C855.751160,398.115601 853.684265,390.138123 853.478943,382.525360 
	C853.205261,372.378510 852.038391,362.256256 851.747314,352.109283 
	C851.604431,347.128357 849.615540,344.884491 844.817200,344.354279 
	C840.691162,343.898376 836.635132,342.804230 832.508606,342.357849 
	C827.791748,341.847626 824.894836,339.756439 824.056702,334.884613 
	C823.640442,332.465179 822.293579,330.227692 822.317932,326.561127 
	C832.670227,329.164856 842.828674,331.188934 853.566650,332.457214 
z"/>
<path fill="#000000" opacity="1.000000" stroke="none" 
	d="
M612.535522,186.553818 
	C608.708496,189.798599 605.138184,192.797836 601.616516,195.853149 
	C598.986084,198.135208 596.019897,199.291443 592.492920,199.249283 
	C585.430176,199.164856 578.365723,199.224228 571.659607,199.224228 
	C570.822266,196.977173 571.700073,196.104904 572.423950,195.225082 
	C579.090027,187.122284 585.780762,179.039810 592.444702,170.935226 
	C593.897400,169.168488 595.656189,168.010086 597.989990,168.012070 
	C608.651184,168.021149 619.312378,168.057739 629.973511,168.100800 
	C630.831116,168.104263 631.611389,168.370239 632.320190,169.841248 
	C625.911743,175.258926 619.362427,180.795654 612.535522,186.553818 
z"/>
</svg>